%TF.GenerationSoftware,KiCad,Pcbnew,9.0.4*%
%TF.CreationDate,2026-03-23T12:55:54-04:00*%
%TF.ProjectId,DiffGainAmpI2C,44696666-4761-4696-9e41-6d704932432e,rev?*%
%TF.SameCoordinates,Original*%
%TF.FileFunction,Legend,Top*%
%TF.FilePolarity,Positive*%
%FSLAX46Y46*%
G04 Gerber Fmt 4.6, Leading zero omitted, Abs format (unit mm)*
G04 Created by KiCad (PCBNEW 9.0.4) date 2026-03-23 12:55:54*
%MOMM*%
%LPD*%
G01*
G04 APERTURE LIST*
%ADD10C,0.150000*%
%ADD11C,0.120000*%
G04 APERTURE END LIST*
D10*
X117833333Y-105454819D02*
X117500000Y-104978628D01*
X117261905Y-105454819D02*
X117261905Y-104454819D01*
X117261905Y-104454819D02*
X117642857Y-104454819D01*
X117642857Y-104454819D02*
X117738095Y-104502438D01*
X117738095Y-104502438D02*
X117785714Y-104550057D01*
X117785714Y-104550057D02*
X117833333Y-104645295D01*
X117833333Y-104645295D02*
X117833333Y-104788152D01*
X117833333Y-104788152D02*
X117785714Y-104883390D01*
X117785714Y-104883390D02*
X117738095Y-104931009D01*
X117738095Y-104931009D02*
X117642857Y-104978628D01*
X117642857Y-104978628D02*
X117261905Y-104978628D01*
X118214286Y-104550057D02*
X118261905Y-104502438D01*
X118261905Y-104502438D02*
X118357143Y-104454819D01*
X118357143Y-104454819D02*
X118595238Y-104454819D01*
X118595238Y-104454819D02*
X118690476Y-104502438D01*
X118690476Y-104502438D02*
X118738095Y-104550057D01*
X118738095Y-104550057D02*
X118785714Y-104645295D01*
X118785714Y-104645295D02*
X118785714Y-104740533D01*
X118785714Y-104740533D02*
X118738095Y-104883390D01*
X118738095Y-104883390D02*
X118166667Y-105454819D01*
X118166667Y-105454819D02*
X118785714Y-105454819D01*
X121666666Y-94954819D02*
X121666666Y-95669104D01*
X121666666Y-95669104D02*
X121619047Y-95811961D01*
X121619047Y-95811961D02*
X121523809Y-95907200D01*
X121523809Y-95907200D02*
X121380952Y-95954819D01*
X121380952Y-95954819D02*
X121285714Y-95954819D01*
X122095238Y-95050057D02*
X122142857Y-95002438D01*
X122142857Y-95002438D02*
X122238095Y-94954819D01*
X122238095Y-94954819D02*
X122476190Y-94954819D01*
X122476190Y-94954819D02*
X122571428Y-95002438D01*
X122571428Y-95002438D02*
X122619047Y-95050057D01*
X122619047Y-95050057D02*
X122666666Y-95145295D01*
X122666666Y-95145295D02*
X122666666Y-95240533D01*
X122666666Y-95240533D02*
X122619047Y-95383390D01*
X122619047Y-95383390D02*
X122047619Y-95954819D01*
X122047619Y-95954819D02*
X122666666Y-95954819D01*
X113238095Y-95954819D02*
X113238095Y-96764342D01*
X113238095Y-96764342D02*
X113285714Y-96859580D01*
X113285714Y-96859580D02*
X113333333Y-96907200D01*
X113333333Y-96907200D02*
X113428571Y-96954819D01*
X113428571Y-96954819D02*
X113619047Y-96954819D01*
X113619047Y-96954819D02*
X113714285Y-96907200D01*
X113714285Y-96907200D02*
X113761904Y-96859580D01*
X113761904Y-96859580D02*
X113809523Y-96764342D01*
X113809523Y-96764342D02*
X113809523Y-95954819D01*
X114809523Y-96954819D02*
X114238095Y-96954819D01*
X114523809Y-96954819D02*
X114523809Y-95954819D01*
X114523809Y-95954819D02*
X114428571Y-96097676D01*
X114428571Y-96097676D02*
X114333333Y-96192914D01*
X114333333Y-96192914D02*
X114238095Y-96240533D01*
X117333333Y-101359580D02*
X117285714Y-101407200D01*
X117285714Y-101407200D02*
X117142857Y-101454819D01*
X117142857Y-101454819D02*
X117047619Y-101454819D01*
X117047619Y-101454819D02*
X116904762Y-101407200D01*
X116904762Y-101407200D02*
X116809524Y-101311961D01*
X116809524Y-101311961D02*
X116761905Y-101216723D01*
X116761905Y-101216723D02*
X116714286Y-101026247D01*
X116714286Y-101026247D02*
X116714286Y-100883390D01*
X116714286Y-100883390D02*
X116761905Y-100692914D01*
X116761905Y-100692914D02*
X116809524Y-100597676D01*
X116809524Y-100597676D02*
X116904762Y-100502438D01*
X116904762Y-100502438D02*
X117047619Y-100454819D01*
X117047619Y-100454819D02*
X117142857Y-100454819D01*
X117142857Y-100454819D02*
X117285714Y-100502438D01*
X117285714Y-100502438D02*
X117333333Y-100550057D01*
X118285714Y-101454819D02*
X117714286Y-101454819D01*
X118000000Y-101454819D02*
X118000000Y-100454819D01*
X118000000Y-100454819D02*
X117904762Y-100597676D01*
X117904762Y-100597676D02*
X117809524Y-100692914D01*
X117809524Y-100692914D02*
X117714286Y-100740533D01*
X115833333Y-106859580D02*
X115785714Y-106907200D01*
X115785714Y-106907200D02*
X115642857Y-106954819D01*
X115642857Y-106954819D02*
X115547619Y-106954819D01*
X115547619Y-106954819D02*
X115404762Y-106907200D01*
X115404762Y-106907200D02*
X115309524Y-106811961D01*
X115309524Y-106811961D02*
X115261905Y-106716723D01*
X115261905Y-106716723D02*
X115214286Y-106526247D01*
X115214286Y-106526247D02*
X115214286Y-106383390D01*
X115214286Y-106383390D02*
X115261905Y-106192914D01*
X115261905Y-106192914D02*
X115309524Y-106097676D01*
X115309524Y-106097676D02*
X115404762Y-106002438D01*
X115404762Y-106002438D02*
X115547619Y-105954819D01*
X115547619Y-105954819D02*
X115642857Y-105954819D01*
X115642857Y-105954819D02*
X115785714Y-106002438D01*
X115785714Y-106002438D02*
X115833333Y-106050057D01*
X116214286Y-106050057D02*
X116261905Y-106002438D01*
X116261905Y-106002438D02*
X116357143Y-105954819D01*
X116357143Y-105954819D02*
X116595238Y-105954819D01*
X116595238Y-105954819D02*
X116690476Y-106002438D01*
X116690476Y-106002438D02*
X116738095Y-106050057D01*
X116738095Y-106050057D02*
X116785714Y-106145295D01*
X116785714Y-106145295D02*
X116785714Y-106240533D01*
X116785714Y-106240533D02*
X116738095Y-106383390D01*
X116738095Y-106383390D02*
X116166667Y-106954819D01*
X116166667Y-106954819D02*
X116785714Y-106954819D01*
X114038095Y-100004819D02*
X114038095Y-100814342D01*
X114038095Y-100814342D02*
X114085714Y-100909580D01*
X114085714Y-100909580D02*
X114133333Y-100957200D01*
X114133333Y-100957200D02*
X114228571Y-101004819D01*
X114228571Y-101004819D02*
X114419047Y-101004819D01*
X114419047Y-101004819D02*
X114514285Y-100957200D01*
X114514285Y-100957200D02*
X114561904Y-100909580D01*
X114561904Y-100909580D02*
X114609523Y-100814342D01*
X114609523Y-100814342D02*
X114609523Y-100004819D01*
X115038095Y-100100057D02*
X115085714Y-100052438D01*
X115085714Y-100052438D02*
X115180952Y-100004819D01*
X115180952Y-100004819D02*
X115419047Y-100004819D01*
X115419047Y-100004819D02*
X115514285Y-100052438D01*
X115514285Y-100052438D02*
X115561904Y-100100057D01*
X115561904Y-100100057D02*
X115609523Y-100195295D01*
X115609523Y-100195295D02*
X115609523Y-100290533D01*
X115609523Y-100290533D02*
X115561904Y-100433390D01*
X115561904Y-100433390D02*
X114990476Y-101004819D01*
X114990476Y-101004819D02*
X115609523Y-101004819D01*
X119833333Y-96954819D02*
X119500000Y-96478628D01*
X119261905Y-96954819D02*
X119261905Y-95954819D01*
X119261905Y-95954819D02*
X119642857Y-95954819D01*
X119642857Y-95954819D02*
X119738095Y-96002438D01*
X119738095Y-96002438D02*
X119785714Y-96050057D01*
X119785714Y-96050057D02*
X119833333Y-96145295D01*
X119833333Y-96145295D02*
X119833333Y-96288152D01*
X119833333Y-96288152D02*
X119785714Y-96383390D01*
X119785714Y-96383390D02*
X119738095Y-96431009D01*
X119738095Y-96431009D02*
X119642857Y-96478628D01*
X119642857Y-96478628D02*
X119261905Y-96478628D01*
X120785714Y-96954819D02*
X120214286Y-96954819D01*
X120500000Y-96954819D02*
X120500000Y-95954819D01*
X120500000Y-95954819D02*
X120404762Y-96097676D01*
X120404762Y-96097676D02*
X120309524Y-96192914D01*
X120309524Y-96192914D02*
X120214286Y-96240533D01*
X108666666Y-94954819D02*
X108666666Y-95669104D01*
X108666666Y-95669104D02*
X108619047Y-95811961D01*
X108619047Y-95811961D02*
X108523809Y-95907200D01*
X108523809Y-95907200D02*
X108380952Y-95954819D01*
X108380952Y-95954819D02*
X108285714Y-95954819D01*
X109666666Y-95954819D02*
X109095238Y-95954819D01*
X109380952Y-95954819D02*
X109380952Y-94954819D01*
X109380952Y-94954819D02*
X109285714Y-95097676D01*
X109285714Y-95097676D02*
X109190476Y-95192914D01*
X109190476Y-95192914D02*
X109095238Y-95240533D01*
X117833333Y-106954819D02*
X117500000Y-106478628D01*
X117261905Y-106954819D02*
X117261905Y-105954819D01*
X117261905Y-105954819D02*
X117642857Y-105954819D01*
X117642857Y-105954819D02*
X117738095Y-106002438D01*
X117738095Y-106002438D02*
X117785714Y-106050057D01*
X117785714Y-106050057D02*
X117833333Y-106145295D01*
X117833333Y-106145295D02*
X117833333Y-106288152D01*
X117833333Y-106288152D02*
X117785714Y-106383390D01*
X117785714Y-106383390D02*
X117738095Y-106431009D01*
X117738095Y-106431009D02*
X117642857Y-106478628D01*
X117642857Y-106478628D02*
X117261905Y-106478628D01*
X118166667Y-105954819D02*
X118785714Y-105954819D01*
X118785714Y-105954819D02*
X118452381Y-106335771D01*
X118452381Y-106335771D02*
X118595238Y-106335771D01*
X118595238Y-106335771D02*
X118690476Y-106383390D01*
X118690476Y-106383390D02*
X118738095Y-106431009D01*
X118738095Y-106431009D02*
X118785714Y-106526247D01*
X118785714Y-106526247D02*
X118785714Y-106764342D01*
X118785714Y-106764342D02*
X118738095Y-106859580D01*
X118738095Y-106859580D02*
X118690476Y-106907200D01*
X118690476Y-106907200D02*
X118595238Y-106954819D01*
X118595238Y-106954819D02*
X118309524Y-106954819D01*
X118309524Y-106954819D02*
X118214286Y-106907200D01*
X118214286Y-106907200D02*
X118166667Y-106859580D01*
D11*
%TO.C,R2*%
X120360436Y-102765000D02*
X120814564Y-102765000D01*
X120360436Y-104235000D02*
X120814564Y-104235000D01*
%TO.C,J2*%
X123120000Y-95120000D02*
X124500000Y-95120000D01*
X123120000Y-96500000D02*
X123120000Y-95120000D01*
X123120000Y-97770000D02*
X123120000Y-108040000D01*
X123120000Y-97770000D02*
X125880000Y-97770000D01*
X123120000Y-108040000D02*
X125880000Y-108040000D01*
X125880000Y-97770000D02*
X125880000Y-108040000D01*
%TO.C,U1*%
X115000000Y-97390000D02*
X113500000Y-97390000D01*
X115000000Y-97390000D02*
X116500000Y-97390000D01*
X115000000Y-100610000D02*
X113500000Y-100610000D01*
X115000000Y-100610000D02*
X116500000Y-100610000D01*
X112787500Y-97515000D02*
X112547500Y-97185000D01*
X113027500Y-97185000D01*
X112787500Y-97515000D01*
G36*
X112787500Y-97515000D02*
G01*
X112547500Y-97185000D01*
X113027500Y-97185000D01*
X112787500Y-97515000D01*
G37*
%TO.C,C1*%
X119788748Y-100265000D02*
X120311252Y-100265000D01*
X119788748Y-101735000D02*
X120311252Y-101735000D01*
%TO.C,C2*%
X113188748Y-105265000D02*
X113711252Y-105265000D01*
X113188748Y-106735000D02*
X113711252Y-106735000D01*
%TO.C,U2*%
X114800000Y-101390000D02*
X113300000Y-101390000D01*
X114800000Y-101390000D02*
X116300000Y-101390000D01*
X114800000Y-104610000D02*
X113300000Y-104610000D01*
X114800000Y-104610000D02*
X116300000Y-104610000D01*
X112587500Y-101590000D02*
X112347500Y-101260000D01*
X112827500Y-101260000D01*
X112587500Y-101590000D01*
G36*
X112587500Y-101590000D02*
G01*
X112347500Y-101260000D01*
X112827500Y-101260000D01*
X112587500Y-101590000D01*
G37*
%TO.C,R1*%
X119772936Y-97765000D02*
X120227064Y-97765000D01*
X119772936Y-99235000D02*
X120227064Y-99235000D01*
%TO.C,J1*%
X108120000Y-96620000D02*
X109500000Y-96620000D01*
X108120000Y-98000000D02*
X108120000Y-96620000D01*
X108120000Y-99270000D02*
X108120000Y-107000000D01*
X108120000Y-99270000D02*
X110880000Y-99270000D01*
X108120000Y-107000000D02*
X110880000Y-107000000D01*
X110880000Y-99270000D02*
X110880000Y-107000000D01*
%TO.C,R3*%
X120360436Y-105265000D02*
X120814564Y-105265000D01*
X120360436Y-106735000D02*
X120814564Y-106735000D01*
%TD*%
M02*
