%TF.GenerationSoftware,KiCad,Pcbnew,9.0.4*%
%TF.CreationDate,2026-03-23T12:55:54-04:00*%
%TF.ProjectId,DiffGainAmpI2C,44696666-4761-4696-9e41-6d704932432e,rev?*%
%TF.SameCoordinates,Original*%
%TF.FileFunction,Copper,L2,Bot*%
%TF.FilePolarity,Positive*%
%FSLAX46Y46*%
G04 Gerber Fmt 4.6, Leading zero omitted, Abs format (unit mm)*
G04 Created by KiCad (PCBNEW 9.0.4) date 2026-03-23 12:55:54*
%MOMM*%
%LPD*%
G01*
G04 APERTURE LIST*
%TA.AperFunction,ComponentPad*%
%ADD10R,1.700000X1.700000*%
%TD*%
%TA.AperFunction,ComponentPad*%
%ADD11C,1.700000*%
%TD*%
%TA.AperFunction,ViaPad*%
%ADD12C,0.600000*%
%TD*%
%TA.AperFunction,Conductor*%
%ADD13C,0.200000*%
%TD*%
G04 APERTURE END LIST*
D10*
%TO.P,J2,1,Pin_1*%
%TO.N,+3.3V*%
X124500000Y-96500000D03*
D11*
%TO.P,J2,2,Pin_2*%
%TO.N,+5V*%
X124500000Y-99040000D03*
%TO.P,J2,3,Pin_3*%
%TO.N,GND*%
X124500000Y-101580000D03*
%TO.P,J2,4,Pin_4*%
%TO.N,Net-(J2-Pin_4)*%
X124500000Y-104120000D03*
%TO.P,J2,5,Pin_5*%
%TO.N,Net-(J2-Pin_5)*%
X124500000Y-106660000D03*
%TD*%
D10*
%TO.P,J1,1,Pin_1*%
%TO.N,+5V*%
X109500000Y-98000000D03*
D11*
%TO.P,J1,2,Pin_2*%
%TO.N,GND*%
X109500000Y-100540000D03*
%TO.P,J1,3,Pin_3*%
%TO.N,/SENSOR_V0+*%
X109500000Y-103080000D03*
%TO.P,J1,4,Pin_4*%
%TO.N,/SENSOR_V0-*%
X109500000Y-105620000D03*
%TD*%
D12*
%TO.N,+5V*%
X115500000Y-98500000D03*
%TO.N,GND*%
X112323999Y-100239359D03*
X112600000Y-101900000D03*
%TO.N,+3.3V*%
X120500000Y-106910000D03*
%TO.N,Net-(J2-Pin_5)*%
X120636024Y-104011046D03*
X117950001Y-101950000D03*
X120637500Y-103050000D03*
%TD*%
D13*
%TO.N,+5V*%
X114000000Y-97000000D02*
X115500000Y-98500000D01*
X112000000Y-97000000D02*
X114000000Y-97000000D01*
X112000000Y-97000000D02*
X111000000Y-98000000D01*
X111000000Y-98000000D02*
X109500000Y-98000000D01*
%TO.N,GND*%
X109500000Y-100540000D02*
X110860000Y-101900000D01*
X125601000Y-95399000D02*
X109899000Y-95399000D01*
X108399000Y-96899000D02*
X108399000Y-99439000D01*
X112023358Y-100540000D02*
X112323999Y-100239359D01*
X124500000Y-101580000D02*
X125601000Y-100479000D01*
X110860000Y-101900000D02*
X112600000Y-101900000D01*
X108399000Y-99439000D02*
X109500000Y-100540000D01*
X109500000Y-100540000D02*
X112023358Y-100540000D01*
X109899000Y-95399000D02*
X108399000Y-96899000D01*
X125601000Y-100479000D02*
X125601000Y-95399000D01*
%TO.N,+3.3V*%
X122500000Y-98500000D02*
X122500000Y-107000000D01*
X120500000Y-107000000D02*
X120500000Y-106910000D01*
X124500000Y-96500000D02*
X122500000Y-98500000D01*
X122500000Y-107000000D02*
X120500000Y-107000000D01*
%TO.N,Net-(J2-Pin_5)*%
X119000001Y-103000000D02*
X120587500Y-103000000D01*
X119949000Y-104698070D02*
X120636024Y-104011046D01*
X123699000Y-107461000D02*
X120271768Y-107461000D01*
X119949000Y-107138232D02*
X119949000Y-104698070D01*
X124500000Y-106660000D02*
X123699000Y-107461000D01*
X117950001Y-101950000D02*
X119000001Y-103000000D01*
X120271768Y-107461000D02*
X119949000Y-107138232D01*
X120587500Y-103000000D02*
X120637500Y-103050000D01*
%TD*%
%TA.AperFunction,Conductor*%
%TO.N,GND*%
G36*
X123377604Y-95019685D02*
G01*
X123423359Y-95072489D01*
X123433303Y-95141647D01*
X123404278Y-95205203D01*
X123384876Y-95223266D01*
X123292455Y-95292452D01*
X123292452Y-95292455D01*
X123206206Y-95407664D01*
X123206202Y-95407671D01*
X123155908Y-95542517D01*
X123149501Y-95602116D01*
X123149500Y-95602135D01*
X123149500Y-96949902D01*
X123129815Y-97016941D01*
X123113181Y-97037583D01*
X122019481Y-98131282D01*
X122019479Y-98131285D01*
X121969361Y-98218094D01*
X121969359Y-98218096D01*
X121940425Y-98268209D01*
X121940424Y-98268210D01*
X121940423Y-98268215D01*
X121899499Y-98420943D01*
X121899499Y-98420945D01*
X121899499Y-98589046D01*
X121899500Y-98589059D01*
X121899500Y-106275500D01*
X121879815Y-106342539D01*
X121827011Y-106388294D01*
X121775500Y-106399500D01*
X121172940Y-106399500D01*
X121105901Y-106379815D01*
X121085263Y-106363185D01*
X121010289Y-106288211D01*
X121010288Y-106288210D01*
X121010287Y-106288209D01*
X120879185Y-106200609D01*
X120879172Y-106200602D01*
X120733501Y-106140264D01*
X120733491Y-106140261D01*
X120649308Y-106123516D01*
X120587397Y-106091131D01*
X120552823Y-106030415D01*
X120549500Y-106001899D01*
X120549500Y-104998167D01*
X120558143Y-104968730D01*
X120564667Y-104938741D01*
X120568422Y-104933723D01*
X120569185Y-104931128D01*
X120585813Y-104910491D01*
X120650687Y-104845617D01*
X120712006Y-104812135D01*
X120714174Y-104811684D01*
X120785399Y-104797516D01*
X120869521Y-104780783D01*
X121015203Y-104720440D01*
X121146313Y-104632835D01*
X121257813Y-104521335D01*
X121345418Y-104390225D01*
X121405761Y-104244543D01*
X121436524Y-104089888D01*
X121436524Y-103932204D01*
X121436524Y-103932201D01*
X121436523Y-103932199D01*
X121405761Y-103777549D01*
X121345418Y-103631867D01*
X121324470Y-103600517D01*
X121303593Y-103533841D01*
X121322077Y-103466461D01*
X121324453Y-103462764D01*
X121346894Y-103429179D01*
X121407237Y-103283497D01*
X121438000Y-103128842D01*
X121438000Y-102971158D01*
X121438000Y-102971155D01*
X121437999Y-102971153D01*
X121435821Y-102960202D01*
X121407237Y-102816503D01*
X121387768Y-102769500D01*
X121346897Y-102670827D01*
X121346890Y-102670814D01*
X121259289Y-102539711D01*
X121259286Y-102539707D01*
X121147792Y-102428213D01*
X121147788Y-102428210D01*
X121016685Y-102340609D01*
X121016672Y-102340602D01*
X120871001Y-102280264D01*
X120870989Y-102280261D01*
X120716345Y-102249500D01*
X120716342Y-102249500D01*
X120558658Y-102249500D01*
X120558655Y-102249500D01*
X120404010Y-102280261D01*
X120403998Y-102280264D01*
X120258327Y-102340602D01*
X120258320Y-102340606D01*
X120229428Y-102359911D01*
X120201455Y-102378602D01*
X120134779Y-102399480D01*
X120132565Y-102399500D01*
X119300098Y-102399500D01*
X119233059Y-102379815D01*
X119212417Y-102363181D01*
X118784575Y-101935339D01*
X118751090Y-101874016D01*
X118750639Y-101871849D01*
X118728938Y-101762754D01*
X118719738Y-101716503D01*
X118690463Y-101645826D01*
X118659398Y-101570827D01*
X118659391Y-101570814D01*
X118571790Y-101439711D01*
X118571787Y-101439707D01*
X118460293Y-101328213D01*
X118460289Y-101328210D01*
X118329186Y-101240609D01*
X118329173Y-101240602D01*
X118183502Y-101180264D01*
X118183490Y-101180261D01*
X118028846Y-101149500D01*
X118028843Y-101149500D01*
X117871159Y-101149500D01*
X117871156Y-101149500D01*
X117716511Y-101180261D01*
X117716499Y-101180264D01*
X117570828Y-101240602D01*
X117570815Y-101240609D01*
X117439712Y-101328210D01*
X117439708Y-101328213D01*
X117328214Y-101439707D01*
X117328211Y-101439711D01*
X117240610Y-101570814D01*
X117240603Y-101570827D01*
X117180265Y-101716498D01*
X117180262Y-101716510D01*
X117149501Y-101871153D01*
X117149501Y-102028846D01*
X117180262Y-102183489D01*
X117180265Y-102183501D01*
X117240603Y-102329172D01*
X117240610Y-102329185D01*
X117328211Y-102460288D01*
X117328214Y-102460292D01*
X117439708Y-102571786D01*
X117439712Y-102571789D01*
X117570815Y-102659390D01*
X117570828Y-102659397D01*
X117716499Y-102719735D01*
X117716504Y-102719737D01*
X117781148Y-102732595D01*
X117871850Y-102750638D01*
X117933761Y-102783023D01*
X117935340Y-102784574D01*
X118515140Y-103364374D01*
X118515150Y-103364385D01*
X118519480Y-103368715D01*
X118519481Y-103368716D01*
X118631285Y-103480520D01*
X118631287Y-103480521D01*
X118631291Y-103480524D01*
X118717887Y-103530520D01*
X118717888Y-103530520D01*
X118768216Y-103559577D01*
X118920943Y-103600500D01*
X118920944Y-103600500D01*
X119754044Y-103600500D01*
X119821083Y-103620185D01*
X119866838Y-103672989D01*
X119876782Y-103742147D01*
X119875182Y-103750986D01*
X119872825Y-103761763D01*
X119866287Y-103777549D01*
X119835524Y-103932204D01*
X119835524Y-103932366D01*
X119834907Y-103935188D01*
X119818682Y-103964825D01*
X119803001Y-103994805D01*
X119801450Y-103996383D01*
X119580286Y-104217548D01*
X119468481Y-104329352D01*
X119468479Y-104329355D01*
X119456560Y-104350000D01*
X119429283Y-104397246D01*
X119389423Y-104466285D01*
X119348499Y-104619013D01*
X119348499Y-104619015D01*
X119348499Y-104787116D01*
X119348500Y-104787129D01*
X119348500Y-107051562D01*
X119348499Y-107051580D01*
X119348499Y-107217286D01*
X119348498Y-107217286D01*
X119348499Y-107217289D01*
X119389423Y-107370017D01*
X119389425Y-107370020D01*
X119396311Y-107381947D01*
X119468477Y-107506944D01*
X119468481Y-107506949D01*
X119587349Y-107625817D01*
X119587355Y-107625822D01*
X119786907Y-107825374D01*
X119786917Y-107825385D01*
X119791247Y-107829715D01*
X119791248Y-107829716D01*
X119903052Y-107941520D01*
X119964932Y-107977246D01*
X120039983Y-108020577D01*
X120192711Y-108061501D01*
X120192714Y-108061501D01*
X120358421Y-108061501D01*
X120358437Y-108061500D01*
X123612331Y-108061500D01*
X123612347Y-108061501D01*
X123619943Y-108061501D01*
X123778054Y-108061501D01*
X123778057Y-108061501D01*
X123930785Y-108020577D01*
X124005836Y-107977246D01*
X124022102Y-107967854D01*
X124089998Y-107951385D01*
X124122412Y-107957313D01*
X124183757Y-107977246D01*
X124393713Y-108010500D01*
X124393714Y-108010500D01*
X124606286Y-108010500D01*
X124606287Y-108010500D01*
X124816243Y-107977246D01*
X125018412Y-107911557D01*
X125207816Y-107815051D01*
X125229789Y-107799086D01*
X125379786Y-107690109D01*
X125379788Y-107690106D01*
X125379792Y-107690104D01*
X125530104Y-107539792D01*
X125530106Y-107539788D01*
X125530109Y-107539786D01*
X125655048Y-107367820D01*
X125655047Y-107367820D01*
X125655051Y-107367816D01*
X125751557Y-107178412D01*
X125817246Y-106976243D01*
X125850500Y-106766287D01*
X125850500Y-106553713D01*
X125817246Y-106343757D01*
X125751557Y-106141588D01*
X125655051Y-105952184D01*
X125655049Y-105952181D01*
X125655048Y-105952179D01*
X125530109Y-105780213D01*
X125379786Y-105629890D01*
X125207820Y-105504951D01*
X125207115Y-105504591D01*
X125199054Y-105500485D01*
X125148259Y-105452512D01*
X125131463Y-105384692D01*
X125153999Y-105318556D01*
X125199054Y-105279515D01*
X125207816Y-105275051D01*
X125229789Y-105259086D01*
X125379786Y-105150109D01*
X125379788Y-105150106D01*
X125379792Y-105150104D01*
X125530104Y-104999792D01*
X125530106Y-104999788D01*
X125530109Y-104999786D01*
X125655048Y-104827820D01*
X125655050Y-104827817D01*
X125655051Y-104827816D01*
X125751557Y-104638412D01*
X125817246Y-104436243D01*
X125850500Y-104226287D01*
X125850500Y-104013713D01*
X125817246Y-103803757D01*
X125751557Y-103601588D01*
X125655051Y-103412184D01*
X125655049Y-103412181D01*
X125655048Y-103412179D01*
X125530109Y-103240213D01*
X125379786Y-103089890D01*
X125207817Y-102964949D01*
X125198504Y-102960204D01*
X125147707Y-102912230D01*
X125130912Y-102844409D01*
X125153449Y-102778274D01*
X125198507Y-102739232D01*
X125207555Y-102734622D01*
X125261716Y-102695270D01*
X125261717Y-102695270D01*
X124629408Y-102062962D01*
X124692993Y-102045925D01*
X124807007Y-101980099D01*
X124900099Y-101887007D01*
X124965925Y-101772993D01*
X124982962Y-101709408D01*
X125615270Y-102341717D01*
X125615270Y-102341716D01*
X125654622Y-102287554D01*
X125751095Y-102098217D01*
X125816757Y-101896130D01*
X125816757Y-101896127D01*
X125850000Y-101686246D01*
X125850000Y-101473753D01*
X125816757Y-101263872D01*
X125816757Y-101263869D01*
X125751095Y-101061782D01*
X125654624Y-100872449D01*
X125615270Y-100818282D01*
X125615269Y-100818282D01*
X124982962Y-101450590D01*
X124965925Y-101387007D01*
X124900099Y-101272993D01*
X124807007Y-101179901D01*
X124692993Y-101114075D01*
X124629409Y-101097037D01*
X125261716Y-100464728D01*
X125207547Y-100425373D01*
X125207547Y-100425372D01*
X125198500Y-100420763D01*
X125147706Y-100372788D01*
X125130912Y-100304966D01*
X125153451Y-100238832D01*
X125198508Y-100199793D01*
X125207816Y-100195051D01*
X125287007Y-100137515D01*
X125379786Y-100070109D01*
X125379788Y-100070106D01*
X125379792Y-100070104D01*
X125530104Y-99919792D01*
X125530106Y-99919788D01*
X125530109Y-99919786D01*
X125655048Y-99747820D01*
X125655050Y-99747817D01*
X125655051Y-99747816D01*
X125751557Y-99558412D01*
X125817246Y-99356243D01*
X125850500Y-99146287D01*
X125850500Y-98933713D01*
X125817246Y-98723757D01*
X125751557Y-98521588D01*
X125655051Y-98332184D01*
X125655049Y-98332181D01*
X125655048Y-98332179D01*
X125530109Y-98160213D01*
X125416569Y-98046673D01*
X125383084Y-97985350D01*
X125388068Y-97915658D01*
X125429940Y-97859725D01*
X125460915Y-97842810D01*
X125592331Y-97793796D01*
X125707546Y-97707546D01*
X125793796Y-97592331D01*
X125844091Y-97457483D01*
X125844122Y-97457187D01*
X125844212Y-97456972D01*
X125845874Y-97449938D01*
X125847013Y-97450207D01*
X125870854Y-97392638D01*
X125928243Y-97352785D01*
X125998068Y-97350285D01*
X126058160Y-97385932D01*
X126089440Y-97448409D01*
X126091327Y-97465847D01*
X126495219Y-108370911D01*
X126478029Y-108438633D01*
X126426955Y-108486311D01*
X126371304Y-108499500D01*
X108624000Y-108499500D01*
X108556961Y-108479815D01*
X108511206Y-108427011D01*
X108500000Y-108375500D01*
X108500000Y-106806131D01*
X108519685Y-106739092D01*
X108572489Y-106693337D01*
X108641647Y-106683393D01*
X108696885Y-106705813D01*
X108792184Y-106775051D01*
X108981588Y-106871557D01*
X109183757Y-106937246D01*
X109393713Y-106970500D01*
X109393714Y-106970500D01*
X109606286Y-106970500D01*
X109606287Y-106970500D01*
X109816243Y-106937246D01*
X110018412Y-106871557D01*
X110207816Y-106775051D01*
X110303115Y-106705813D01*
X110379786Y-106650109D01*
X110379788Y-106650106D01*
X110379792Y-106650104D01*
X110530104Y-106499792D01*
X110530106Y-106499788D01*
X110530109Y-106499786D01*
X110655048Y-106327820D01*
X110655047Y-106327820D01*
X110655051Y-106327816D01*
X110751557Y-106138412D01*
X110817246Y-105936243D01*
X110850500Y-105726287D01*
X110850500Y-105513713D01*
X110817246Y-105303757D01*
X110751557Y-105101588D01*
X110655051Y-104912184D01*
X110655049Y-104912181D01*
X110655048Y-104912179D01*
X110530109Y-104740213D01*
X110379786Y-104589890D01*
X110207820Y-104464951D01*
X110207115Y-104464591D01*
X110199054Y-104460485D01*
X110148259Y-104412512D01*
X110131463Y-104344692D01*
X110153999Y-104278556D01*
X110199054Y-104239515D01*
X110207816Y-104235051D01*
X110231907Y-104217548D01*
X110379786Y-104110109D01*
X110379788Y-104110106D01*
X110379792Y-104110104D01*
X110530104Y-103959792D01*
X110530106Y-103959788D01*
X110530109Y-103959786D01*
X110655048Y-103787820D01*
X110655047Y-103787820D01*
X110655051Y-103787816D01*
X110751557Y-103598412D01*
X110817246Y-103396243D01*
X110850500Y-103186287D01*
X110850500Y-102973713D01*
X110817246Y-102763757D01*
X110751557Y-102561588D01*
X110655051Y-102372184D01*
X110655049Y-102372181D01*
X110655048Y-102372179D01*
X110530109Y-102200213D01*
X110379786Y-102049890D01*
X110207817Y-101924949D01*
X110198504Y-101920204D01*
X110147707Y-101872230D01*
X110130912Y-101804409D01*
X110153449Y-101738274D01*
X110198507Y-101699232D01*
X110207555Y-101694622D01*
X110261716Y-101655270D01*
X110261717Y-101655270D01*
X109629409Y-101022962D01*
X109692993Y-101005925D01*
X109807007Y-100940099D01*
X109900099Y-100847007D01*
X109965925Y-100732993D01*
X109982962Y-100669408D01*
X110615270Y-101301717D01*
X110615270Y-101301716D01*
X110654622Y-101247554D01*
X110751095Y-101058217D01*
X110816757Y-100856130D01*
X110816757Y-100856127D01*
X110850000Y-100646246D01*
X110850000Y-100433753D01*
X110816757Y-100223872D01*
X110816757Y-100223869D01*
X110751095Y-100021782D01*
X110654624Y-99832449D01*
X110615270Y-99778282D01*
X110615269Y-99778282D01*
X109982962Y-100410590D01*
X109965925Y-100347007D01*
X109900099Y-100232993D01*
X109807007Y-100139901D01*
X109692993Y-100074075D01*
X109629407Y-100057036D01*
X110299627Y-99386818D01*
X110360950Y-99353333D01*
X110387307Y-99350499D01*
X110397872Y-99350499D01*
X110457483Y-99344091D01*
X110592331Y-99293796D01*
X110707546Y-99207546D01*
X110793796Y-99092331D01*
X110844091Y-98957483D01*
X110850500Y-98897873D01*
X110850500Y-98724501D01*
X110870185Y-98657462D01*
X110922989Y-98611707D01*
X110974500Y-98600501D01*
X111079054Y-98600501D01*
X111079057Y-98600501D01*
X111231785Y-98559577D01*
X111297583Y-98521588D01*
X111368716Y-98480520D01*
X111480520Y-98368716D01*
X111480520Y-98368714D01*
X111490724Y-98358511D01*
X111490727Y-98358506D01*
X112212417Y-97636819D01*
X112273740Y-97603334D01*
X112300098Y-97600500D01*
X113699903Y-97600500D01*
X113766942Y-97620185D01*
X113787584Y-97636819D01*
X114665425Y-98514660D01*
X114698910Y-98575983D01*
X114699361Y-98578149D01*
X114730261Y-98733491D01*
X114730264Y-98733501D01*
X114790602Y-98879172D01*
X114790609Y-98879185D01*
X114878210Y-99010288D01*
X114878213Y-99010292D01*
X114989707Y-99121786D01*
X114989711Y-99121789D01*
X115120814Y-99209390D01*
X115120827Y-99209397D01*
X115266498Y-99269735D01*
X115266503Y-99269737D01*
X115387440Y-99293793D01*
X115421153Y-99300499D01*
X115421156Y-99300500D01*
X115421158Y-99300500D01*
X115578844Y-99300500D01*
X115578845Y-99300499D01*
X115733497Y-99269737D01*
X115879179Y-99209394D01*
X116010289Y-99121789D01*
X116121789Y-99010289D01*
X116209394Y-98879179D01*
X116269737Y-98733497D01*
X116300500Y-98578842D01*
X116300500Y-98421158D01*
X116300500Y-98421155D01*
X116300499Y-98421153D01*
X116300457Y-98420943D01*
X116269737Y-98266503D01*
X116269735Y-98266498D01*
X116209397Y-98120827D01*
X116209390Y-98120814D01*
X116121789Y-97989711D01*
X116121786Y-97989707D01*
X116010292Y-97878213D01*
X116010288Y-97878210D01*
X115879185Y-97790609D01*
X115879172Y-97790602D01*
X115733501Y-97730264D01*
X115733491Y-97730261D01*
X115578149Y-97699361D01*
X115516238Y-97666976D01*
X115514660Y-97665425D01*
X114487590Y-96638355D01*
X114487588Y-96638352D01*
X114368717Y-96519481D01*
X114368716Y-96519480D01*
X114281904Y-96469360D01*
X114281904Y-96469359D01*
X114281900Y-96469358D01*
X114231785Y-96440423D01*
X114079057Y-96399499D01*
X113920943Y-96399499D01*
X113913347Y-96399499D01*
X113913331Y-96399500D01*
X112086670Y-96399500D01*
X112086654Y-96399499D01*
X112079058Y-96399499D01*
X111920943Y-96399499D01*
X111844579Y-96419961D01*
X111768214Y-96440423D01*
X111768209Y-96440426D01*
X111631290Y-96519475D01*
X111631282Y-96519481D01*
X111051805Y-97098958D01*
X110990482Y-97132443D01*
X110920790Y-97127459D01*
X110864857Y-97085587D01*
X110847924Y-97049366D01*
X110846802Y-97049785D01*
X110793797Y-96907671D01*
X110793793Y-96907664D01*
X110707547Y-96792455D01*
X110707544Y-96792452D01*
X110592335Y-96706206D01*
X110592328Y-96706202D01*
X110457482Y-96655908D01*
X110457483Y-96655908D01*
X110397883Y-96649501D01*
X110397881Y-96649500D01*
X110397873Y-96649500D01*
X110397865Y-96649500D01*
X108624000Y-96649500D01*
X108556961Y-96629815D01*
X108511206Y-96577011D01*
X108500000Y-96525500D01*
X108500000Y-95124000D01*
X108519685Y-95056961D01*
X108572489Y-95011206D01*
X108624000Y-95000000D01*
X123310565Y-95000000D01*
X123377604Y-95019685D01*
G37*
%TD.AperFunction*%
%TA.AperFunction,Conductor*%
G36*
X124034075Y-101772993D02*
G01*
X124099901Y-101887007D01*
X124192993Y-101980099D01*
X124307007Y-102045925D01*
X124370590Y-102062962D01*
X123738282Y-102695269D01*
X123738282Y-102695270D01*
X123792452Y-102734626D01*
X123792451Y-102734626D01*
X123801495Y-102739234D01*
X123852292Y-102787208D01*
X123869087Y-102855029D01*
X123846550Y-102921164D01*
X123801499Y-102960202D01*
X123792182Y-102964949D01*
X123620213Y-103089890D01*
X123469890Y-103240213D01*
X123344949Y-103412182D01*
X123334984Y-103431740D01*
X123287009Y-103482536D01*
X123219188Y-103499330D01*
X123153053Y-103476792D01*
X123109602Y-103422076D01*
X123100500Y-103375444D01*
X123100500Y-102323453D01*
X123120185Y-102256414D01*
X123172989Y-102210659D01*
X123242147Y-102200715D01*
X123305703Y-102229740D01*
X123334985Y-102267159D01*
X123345373Y-102287547D01*
X123384728Y-102341716D01*
X124017037Y-101709408D01*
X124034075Y-101772993D01*
G37*
%TD.AperFunction*%
%TA.AperFunction,Conductor*%
G36*
X123305703Y-99690842D02*
G01*
X123334985Y-99728261D01*
X123344949Y-99747817D01*
X123469890Y-99919786D01*
X123620213Y-100070109D01*
X123792179Y-100195048D01*
X123792181Y-100195049D01*
X123792184Y-100195051D01*
X123801493Y-100199794D01*
X123852290Y-100247766D01*
X123869087Y-100315587D01*
X123846552Y-100381722D01*
X123801505Y-100420760D01*
X123792446Y-100425376D01*
X123792440Y-100425380D01*
X123738282Y-100464727D01*
X123738282Y-100464728D01*
X124370591Y-101097037D01*
X124307007Y-101114075D01*
X124192993Y-101179901D01*
X124099901Y-101272993D01*
X124034075Y-101387007D01*
X124017037Y-101450591D01*
X123384728Y-100818282D01*
X123384727Y-100818282D01*
X123345380Y-100872440D01*
X123345378Y-100872443D01*
X123334984Y-100892843D01*
X123287009Y-100943639D01*
X123219188Y-100960433D01*
X123153053Y-100937895D01*
X123109602Y-100883179D01*
X123100500Y-100836547D01*
X123100500Y-99784555D01*
X123120185Y-99717516D01*
X123172989Y-99671761D01*
X123242147Y-99661817D01*
X123305703Y-99690842D01*
G37*
%TD.AperFunction*%
%TD*%
M02*
