%TF.GenerationSoftware,KiCad,Pcbnew,9.0.4*%
%TF.CreationDate,2026-03-23T12:55:54-04:00*%
%TF.ProjectId,DiffGainAmpI2C,44696666-4761-4696-9e41-6d704932432e,rev?*%
%TF.SameCoordinates,Original*%
%TF.FileFunction,Copper,L1,Top*%
%TF.FilePolarity,Positive*%
%FSLAX46Y46*%
G04 Gerber Fmt 4.6, Leading zero omitted, Abs format (unit mm)*
G04 Created by KiCad (PCBNEW 9.0.4) date 2026-03-23 12:55:54*
%MOMM*%
%LPD*%
G01*
G04 APERTURE LIST*
G04 Aperture macros list*
%AMRoundRect*
0 Rectangle with rounded corners*
0 $1 Rounding radius*
0 $2 $3 $4 $5 $6 $7 $8 $9 X,Y pos of 4 corners*
0 Add a 4 corners polygon primitive as box body*
4,1,4,$2,$3,$4,$5,$6,$7,$8,$9,$2,$3,0*
0 Add four circle primitives for the rounded corners*
1,1,$1+$1,$2,$3*
1,1,$1+$1,$4,$5*
1,1,$1+$1,$6,$7*
1,1,$1+$1,$8,$9*
0 Add four rect primitives between the rounded corners*
20,1,$1+$1,$2,$3,$4,$5,0*
20,1,$1+$1,$4,$5,$6,$7,0*
20,1,$1+$1,$6,$7,$8,$9,0*
20,1,$1+$1,$8,$9,$2,$3,0*%
G04 Aperture macros list end*
%TA.AperFunction,SMDPad,CuDef*%
%ADD10RoundRect,0.250000X-0.262500X-0.450000X0.262500X-0.450000X0.262500X0.450000X-0.262500X0.450000X0*%
%TD*%
%TA.AperFunction,ComponentPad*%
%ADD11R,1.700000X1.700000*%
%TD*%
%TA.AperFunction,ComponentPad*%
%ADD12C,1.700000*%
%TD*%
%TA.AperFunction,SMDPad,CuDef*%
%ADD13RoundRect,0.125000X-0.687500X-0.125000X0.687500X-0.125000X0.687500X0.125000X-0.687500X0.125000X0*%
%TD*%
%TA.AperFunction,SMDPad,CuDef*%
%ADD14RoundRect,0.250000X-0.250000X-0.475000X0.250000X-0.475000X0.250000X0.475000X-0.250000X0.475000X0*%
%TD*%
%TA.AperFunction,SMDPad,CuDef*%
%ADD15RoundRect,0.075000X-0.650000X-0.075000X0.650000X-0.075000X0.650000X0.075000X-0.650000X0.075000X0*%
%TD*%
%TA.AperFunction,ViaPad*%
%ADD16C,0.600000*%
%TD*%
%TA.AperFunction,Conductor*%
%ADD17C,0.200000*%
%TD*%
G04 APERTURE END LIST*
D10*
%TO.P,R2,1*%
%TO.N,+3.3V*%
X119675000Y-103500000D03*
%TO.P,R2,2*%
%TO.N,Net-(J2-Pin_5)*%
X121500000Y-103500000D03*
%TD*%
D11*
%TO.P,J2,1,Pin_1*%
%TO.N,+3.3V*%
X124500000Y-96500000D03*
D12*
%TO.P,J2,2,Pin_2*%
%TO.N,+5V*%
X124500000Y-99040000D03*
%TO.P,J2,3,Pin_3*%
%TO.N,GND*%
X124500000Y-101580000D03*
%TO.P,J2,4,Pin_4*%
%TO.N,Net-(J2-Pin_4)*%
X124500000Y-104120000D03*
%TO.P,J2,5,Pin_5*%
%TO.N,Net-(J2-Pin_5)*%
X124500000Y-106660000D03*
%TD*%
D13*
%TO.P,U1,1,Rg*%
%TO.N,Net-(R1-Pad1)*%
X112887500Y-98025000D03*
%TO.P,U1,2,-*%
%TO.N,/SENSOR_V0-*%
X112887500Y-98675000D03*
%TO.P,U1,3,+*%
%TO.N,/SENSOR_V0+*%
X112887500Y-99325000D03*
%TO.P,U1,4,V-*%
%TO.N,GND*%
X112887500Y-99975000D03*
%TO.P,U1,5,Ref*%
X117112500Y-99975000D03*
%TO.P,U1,6*%
%TO.N,Net-(U2-AIN0)*%
X117112500Y-99325000D03*
%TO.P,U1,7,V+*%
%TO.N,+5V*%
X117112500Y-98675000D03*
%TO.P,U1,8,Rg*%
%TO.N,Net-(R1-Pad2)*%
X117112500Y-98025000D03*
%TD*%
D14*
%TO.P,C1,1*%
%TO.N,+5V*%
X119100000Y-101000000D03*
%TO.P,C1,2*%
%TO.N,GND*%
X121000000Y-101000000D03*
%TD*%
%TO.P,C2,1*%
%TO.N,+3.3V*%
X112500000Y-106000000D03*
%TO.P,C2,2*%
%TO.N,GND*%
X114400000Y-106000000D03*
%TD*%
D15*
%TO.P,U2,1,ADDR*%
%TO.N,GND*%
X112600000Y-102000000D03*
%TO.P,U2,2,ALERT/RDY*%
%TO.N,unconnected-(U2-ALERT{slash}RDY-Pad2)*%
X112600000Y-102500000D03*
%TO.P,U2,3,GND*%
%TO.N,GND*%
X112600000Y-103000000D03*
%TO.P,U2,4,AIN0*%
%TO.N,Net-(U2-AIN0)*%
X112600000Y-103500000D03*
%TO.P,U2,5,AIN1*%
%TO.N,unconnected-(U2-AIN1-Pad5)*%
X112600000Y-104000000D03*
%TO.P,U2,6,AIN2*%
%TO.N,unconnected-(U2-AIN2-Pad6)*%
X117000000Y-104000000D03*
%TO.P,U2,7,AIN3*%
%TO.N,unconnected-(U2-AIN3-Pad7)*%
X117000000Y-103500000D03*
%TO.P,U2,8,VDD*%
%TO.N,+3.3V*%
X117000000Y-103000000D03*
%TO.P,U2,9,SDA*%
%TO.N,Net-(J2-Pin_4)*%
X117000000Y-102500000D03*
%TO.P,U2,10,SCL*%
%TO.N,Net-(J2-Pin_5)*%
X117000000Y-102000000D03*
%TD*%
D10*
%TO.P,R1,1*%
%TO.N,Net-(R1-Pad1)*%
X119087500Y-98500000D03*
%TO.P,R1,2*%
%TO.N,Net-(R1-Pad2)*%
X120912500Y-98500000D03*
%TD*%
D11*
%TO.P,J1,1,Pin_1*%
%TO.N,+5V*%
X109500000Y-98000000D03*
D12*
%TO.P,J1,2,Pin_2*%
%TO.N,GND*%
X109500000Y-100540000D03*
%TO.P,J1,3,Pin_3*%
%TO.N,/SENSOR_V0+*%
X109500000Y-103080000D03*
%TO.P,J1,4,Pin_4*%
%TO.N,/SENSOR_V0-*%
X109500000Y-105620000D03*
%TD*%
D10*
%TO.P,R3,1*%
%TO.N,+3.3V*%
X119675000Y-106000000D03*
%TO.P,R3,2*%
%TO.N,Net-(J2-Pin_4)*%
X121500000Y-106000000D03*
%TD*%
D16*
%TO.N,+5V*%
X115500000Y-98500000D03*
%TO.N,GND*%
X112323999Y-100239359D03*
X112600000Y-101900000D03*
%TO.N,+3.3V*%
X120500000Y-106910000D03*
%TO.N,Net-(J2-Pin_5)*%
X120636024Y-104011046D03*
X117950001Y-101950000D03*
X120637500Y-103050000D03*
%TD*%
D17*
%TO.N,+5V*%
X122583000Y-97123000D02*
X110377000Y-97123000D01*
X125601000Y-100141000D02*
X125601000Y-102036050D01*
X115500000Y-98500000D02*
X115500000Y-99500000D01*
X118500000Y-101600000D02*
X119100000Y-101000000D01*
X116325000Y-98675000D02*
X117112500Y-98675000D01*
X110377000Y-97123000D02*
X109500000Y-98000000D01*
X124500000Y-99040000D02*
X122583000Y-97123000D01*
X125601000Y-102036050D02*
X124956050Y-102681000D01*
X118500000Y-102149000D02*
X118500000Y-101600000D01*
X115500000Y-99500000D02*
X116325000Y-98675000D01*
X124956050Y-102681000D02*
X123557388Y-102681000D01*
X124500000Y-99040000D02*
X125601000Y-100141000D01*
X123557388Y-102681000D02*
X123025388Y-102149000D01*
X123025388Y-102149000D02*
X118500000Y-102149000D01*
%TO.N,GND*%
X112588358Y-99975000D02*
X112887500Y-99975000D01*
X121580000Y-101580000D02*
X124500000Y-101580000D01*
X113324999Y-103000000D02*
X112600000Y-103000000D01*
X124500000Y-101580000D02*
X122895000Y-99975000D01*
X108349000Y-101691000D02*
X108349000Y-103556760D01*
X112600000Y-102000000D02*
X112600000Y-101900000D01*
X112851000Y-104451000D02*
X112296760Y-104451000D01*
X112600000Y-101900000D02*
X113188112Y-101900000D01*
X109023240Y-106771000D02*
X108349000Y-106096760D01*
X108349000Y-106096760D02*
X108349000Y-101691000D01*
X121000000Y-101000000D02*
X121580000Y-101580000D01*
X113188112Y-101900000D02*
X113576000Y-102287888D01*
X122895000Y-99975000D02*
X117112500Y-99975000D01*
X114400000Y-106000000D02*
X112851000Y-104451000D01*
X113576000Y-102287888D02*
X113576000Y-102748999D01*
X113576000Y-102748999D02*
X113324999Y-103000000D01*
X112323999Y-100239359D02*
X112588358Y-99975000D01*
X108349000Y-101691000D02*
X109500000Y-100540000D01*
X112296760Y-104451000D02*
X109976760Y-106771000D01*
X109976760Y-106771000D02*
X109023240Y-106771000D01*
%TO.N,+3.3V*%
X114311000Y-107811000D02*
X125088000Y-107811000D01*
X126052000Y-104433760D02*
X124976760Y-105509000D01*
X120500000Y-106910000D02*
X120500000Y-106825000D01*
X126052000Y-98052000D02*
X126052000Y-104195760D01*
X124023240Y-105509000D02*
X123112240Y-104598000D01*
X119675000Y-103500000D02*
X119675000Y-104271760D01*
X123112240Y-104598000D02*
X120773000Y-104598000D01*
X119675000Y-104271760D02*
X120000000Y-104596760D01*
X126399000Y-98399000D02*
X124500000Y-96500000D01*
X120000000Y-104596760D02*
X119596760Y-104596760D01*
X120773000Y-104598000D02*
X120771760Y-104596760D01*
X118000000Y-103000000D02*
X117000000Y-103000000D01*
X125088000Y-107811000D02*
X126399000Y-106500000D01*
X126399000Y-106500000D02*
X126399000Y-98399000D01*
X124976760Y-105509000D02*
X124023240Y-105509000D01*
X126052000Y-98052000D02*
X126052000Y-104433760D01*
X124500000Y-96500000D02*
X126052000Y-98052000D01*
X112500000Y-106000000D02*
X114311000Y-107811000D01*
X120500000Y-106825000D02*
X119675000Y-106000000D01*
X120771760Y-104596760D02*
X120000000Y-104596760D01*
X119596760Y-104596760D02*
X118000000Y-103000000D01*
%TO.N,/SENSOR_V0+*%
X109500000Y-103080000D02*
X111774000Y-100806000D01*
X111774000Y-100806000D02*
X111774000Y-99626001D01*
X111774000Y-99626001D02*
X112075001Y-99325000D01*
X112075001Y-99325000D02*
X112887500Y-99325000D01*
%TO.N,/SENSOR_V0-*%
X111574000Y-101767176D02*
X112815176Y-100526000D01*
X114001000Y-100279918D02*
X114001000Y-98976001D01*
X109500000Y-105620000D02*
X111574000Y-103546000D01*
X113699999Y-98675000D02*
X112887500Y-98675000D01*
X112815176Y-100526000D02*
X113754918Y-100526000D01*
X113754918Y-100526000D02*
X114001000Y-100279918D01*
X114001000Y-98976001D02*
X113699999Y-98675000D01*
X111574000Y-103546000D02*
X111574000Y-101767176D01*
%TO.N,Net-(J2-Pin_5)*%
X117000000Y-102000000D02*
X117900001Y-102000000D01*
X117900001Y-102000000D02*
X117950001Y-101950000D01*
X120988954Y-104011046D02*
X121500000Y-103500000D01*
X121050000Y-103050000D02*
X121500000Y-103500000D01*
X120637500Y-103050000D02*
X121050000Y-103050000D01*
X120636024Y-104011046D02*
X120988954Y-104011046D01*
%TO.N,Net-(J2-Pin_4)*%
X117000000Y-102500000D02*
X122880000Y-102500000D01*
X115974000Y-104232824D02*
X116740176Y-104999000D01*
X117000000Y-102500000D02*
X116241176Y-102500000D01*
X116740176Y-104999000D02*
X120499000Y-104999000D01*
X120499000Y-104999000D02*
X121500000Y-106000000D01*
X116241176Y-102500000D02*
X115974000Y-102767176D01*
X122880000Y-102500000D02*
X124500000Y-104120000D01*
X115974000Y-102767176D02*
X115974000Y-104232824D01*
%TO.N,Net-(R1-Pad1)*%
X112887500Y-98025000D02*
X113438500Y-97474000D01*
X113438500Y-97474000D02*
X118061500Y-97474000D01*
X118061500Y-97474000D02*
X119087500Y-98500000D01*
%TO.N,Net-(R1-Pad2)*%
X118274000Y-98253600D02*
X118274000Y-99185160D01*
X118045400Y-98025000D02*
X118274000Y-98253600D01*
X117112500Y-98025000D02*
X118045400Y-98025000D01*
X119911500Y-99501000D02*
X120912500Y-98500000D01*
X118274000Y-99185160D02*
X118589840Y-99501000D01*
X118589840Y-99501000D02*
X119911500Y-99501000D01*
%TO.N,Net-(U2-AIN0)*%
X113358824Y-103500000D02*
X112600000Y-103500000D01*
X115500000Y-100169082D02*
X115500000Y-102177688D01*
X113626000Y-103232824D02*
X113358824Y-103500000D01*
X117112500Y-99325000D02*
X116344082Y-99325000D01*
X115222000Y-103232824D02*
X113626000Y-103232824D01*
X115500000Y-102177688D02*
X115222000Y-102455688D01*
X116344082Y-99325000D02*
X115500000Y-100169082D01*
X115222000Y-102455688D02*
X115222000Y-103232824D01*
%TD*%
M02*
